<?xml version="1.0" encoding="UTF-8" standalone="no"?><!DOCTYPE svg PUBLIC "-//W3C//DTD SVG 1.1//EN" "http://www.w3.org/Graphics/SVG/1.1/DTD/svg11.dtd"><svg width="100%" height="100%" viewBox="0 0 129 129" version="1.1" xmlns="http://www.w3.org/2000/svg" xmlns:xlink="http://www.w3.org/1999/xlink" xml:space="preserve" xmlns:serif="http://www.serif.com/" style="fill-rule:evenodd;clip-rule:evenodd;stroke-linejoin:round;stroke-miterlimit:2;"><rect id="chef--avatar--person--human--character--face--user--man--male--profession" serif:id="chef, avatar, person, human, character, face, user, man, male, profession" x="0.374" y="0.879" width="128" height="128" style="fill:none;"/><g><circle cx="64.374" cy="64.451" r="63.562" style="fill:#98c6f9;"/><g><path d="M78.452,35.893c-2.185,-10.029 -23.166,-18.607 -29.812,0c-3.688,10.324 -1.366,15.732 -7.66,24.714c-6.295,8.981 -5.928,16.449 -5.928,22.187c0,12.254 8.599,16.288 13.588,17.441c4.639,1.073 15.212,-2.983 15.212,-2.983c0,-0 15.598,6.647 19.733,-6.711c2.486,-8.031 2.914,-15.904 -2.846,-25.772c-5.76,-9.869 1.092,-13.362 -2.287,-28.876Z" style="fill:#404040;"/><path d="M49.61,100.381c4.029,0.338 10.832,-1.908 13.306,-2.787c-0.581,-0.2 -0.913,-0.342 -0.913,-0.342c-0,-0 -7.265,2.787 -12.393,3.129Zm11.986,-75.43c7.01,0.417 13.813,5.463 15.006,10.942c3.38,15.514 -3.472,19.007 2.288,28.876c5.76,9.868 5.332,17.741 2.846,25.772c-1.932,6.238 -6.363,8.114 -10.539,8.34c4.641,0.238 10.168,-1.167 12.388,-8.34c2.486,-8.031 2.914,-15.904 -2.846,-25.772c-5.76,-9.869 1.092,-13.362 -2.287,-28.876c-1.298,-5.96 -9.236,-11.408 -16.856,-10.942Z" style="fill:#363636;"/><path d="M51.581,100.373c-0.309,-0.029 -0.602,-0.075 -0.874,-0.138c-4.99,-1.153 -13.588,-5.187 -13.588,-17.441c0,-5.738 -0.367,-13.206 5.927,-22.187c6.295,-8.982 3.973,-14.39 7.661,-24.714c2.677,-7.497 7.682,-10.581 12.849,-10.935c-5.858,-0.389 -11.882,2.439 -14.916,10.935c-3.688,10.324 -1.366,15.732 -7.66,24.714c-6.295,8.981 -5.928,16.449 -5.928,22.187c0,12.254 8.599,16.288 13.588,17.441c0.824,0.191 1.835,0.22 2.941,0.138Zm13.295,-2.741c1.599,0.542 4.86,1.451 8.276,1.243c-3.951,-0.225 -7.233,-1.623 -7.233,-1.623c-0,-0 -0.386,0.148 -1.043,0.38Z" style="fill:#5c5c5c;"/><path d="M9.946,97.277c3.384,-8.333 10.828,-14.589 19.873,-16.31c7.056,-0.908 18.107,-3.39 25.798,-10.177c1.818,-1.604 6.912,-2.268 6.912,-2.268c-0,0 5.69,0.776 7.771,2.535c6.97,5.891 16.264,8.456 23.038,9.573l0,0.052c0.153,0.006 0.306,0.013 0.459,0.022c1.436,0.227 2.75,0.388 3.892,0.503c9.298,1.903 16.855,8.614 19.955,17.419l0.13,0.293c-11.324,17.501 -31.019,29.094 -53.4,29.094c-23.073,-0 -43.291,-12.32 -54.428,-30.736Z" style="fill:#f3f8fe;"/><path d="M102.659,82.782c0.857,0.368 1.578,0.715 2.079,0.966l-0.002,0.003c-1.956,2.496 -4.361,4.255 -6.744,5.037c-2.781,0.916 -5.114,2.849 -6.531,5.411c-3.721,6.705 -10.356,18.694 -14.919,26.94c-1.643,2.97 -2.812,1.328 -1.585,-0.889c4.545,-8.214 11.873,-21.456 15.857,-28.637c1.418,-2.562 3.75,-4.495 6.532,-5.411c1.829,-0.6 3.671,-1.776 5.313,-3.42Z" style="fill:#e3e3e3;"/><path d="M94.48,120.434c0.587,-3.253 1.518,-6.239 2.802,-8.95c-0,-0 0.525,2.758 1.683,6.288c-1.455,0.946 -2.951,1.834 -4.485,2.662Z" style="fill:#e3e3e3;"/><path d="M29.889,117.841c-0.334,-0.216 -0.666,-0.436 -0.996,-0.658c0.591,-2.136 0.866,-3.58 0.866,-3.58l0.13,4.238Z" style="fill:#e3e3e3;"/><path d="M116.006,101.51l-0.183,-0.417c-2.557,-7.352 -7.888,-13.384 -14.717,-16.802c-1.073,-1.004 -2.21,-2.03 -3.417,-3.084c9.298,1.903 16.855,8.614 19.955,17.419l0.13,0.293c-0.568,0.878 -1.158,1.742 -1.768,2.591Z" style="fill:#e3e3e3;"/><path d="M9.946,97.277c3.384,-8.333 10.828,-14.589 19.873,-16.31c7.056,-0.908 18.107,-3.39 25.798,-10.177c1.818,-1.604 6.912,-2.268 6.912,-2.268l-0,6.268c-0,0 -5.094,0.664 -6.912,2.268c-7.691,6.787 -18.742,9.269 -25.798,10.177c-7.714,1.468 -14.264,6.234 -18.124,12.775c-0.606,-0.895 -1.19,-1.807 -1.749,-2.733Z" style="fill:#f9fcfe;"/><path d="M45.532,125.169c0.611,-25 -2.12,-37.62 -4.614,-47.121c-0.252,-0.961 5.318,-1.294 5.318,-1.294c0,0 6.7,25.777 7.254,31.391c-0.04,3.177 21.701,3.025 21.739,-0c0,-0 3.071,-20.12 7.342,-30.456c0.344,-0.832 7.741,0.457 7.538,1.335c-1.788,7.721 -5.662,25.982 -5.662,35.434c0,3.109 -0.116,6.543 -0.163,10.369c-6.264,2.067 -12.957,3.186 -19.91,3.186c-6.561,-0 -12.89,-0.996 -18.842,-2.844Z" style="fill:#e3e3e3;"/><path d="M43.478,124.493c0.553,-24.551 -2.187,-37.029 -4.692,-46.445c-0.256,-0.961 5.39,-1.294 5.39,-1.294c0,0 6.792,25.777 7.353,31.391c-0.041,3.177 21.997,3.025 22.035,-0c0,-0 3.113,-20.12 7.442,-30.456c0.348,-0.832 7.847,0.457 7.641,1.335c-1.812,7.721 -5.739,25.982 -5.739,35.434c-0,2.829 0.06,6.528 0.215,10.739c-5.928,1.83 -12.224,2.816 -18.749,2.816c-7.318,-0 -14.349,-1.24 -20.896,-3.52Z" style="fill:#0d79f2;"/><path d="M43.478,124.493c0.553,-24.551 -2.187,-37.029 -4.692,-46.445c-0.256,-0.961 5.39,-1.294 5.39,-1.294c0,0 0.032,0.121 0.091,0.347c-1.233,0.205 -2.328,0.511 -2.212,0.947c2.54,9.547 5.322,22.242 4.667,47.477c-1.095,-0.316 -2.177,-0.661 -3.244,-1.032Zm20.474,-14.045c4.993,-0.14 9.595,-0.922 9.612,-2.303c0,-0 3.113,-20.12 7.442,-30.456c0.078,-0.187 -1.795,8.444 -2.884,16.289c-1.036,7.47 -1.288,14.167 -1.288,14.167c-0.022,1.681 -6.837,2.474 -12.882,2.303Z" style="fill:#318df4;"/><path d="M30.918,63.279c-0.343,0.026 -0.65,0.226 -0.814,0.53c-0.164,0.304 -0.162,0.67 0.005,0.972c2.018,3.657 7.915,14.318 7.915,14.318c0.328,0.592 0.113,1.337 -0.478,1.664c-0.001,0.001 -0.001,0.001 -0.001,0.001c-0.592,0.327 -1.337,0.113 -1.664,-0.479c-1.383,-2.5 -4.932,-8.915 -7.908,-14.291c-0.169,-0.304 -0.482,-0.502 -0.829,-0.524c-0.348,-0.021 -0.683,0.136 -0.888,0.418c-0.092,0.14 -0.186,0.28 -0.276,0.424c-0.192,0.312 -0.202,0.703 -0.024,1.024c1.412,2.561 7.824,14.153 7.824,14.153c0.327,0.592 0.113,1.337 -0.479,1.664c-0,0 -0,0 -0.001,0c-0.591,0.328 -1.336,0.113 -1.664,-0.478c-1.051,-1.9 -3.353,-6.061 -5.704,-10.309c-0.155,-0.281 -0.483,-0.42 -0.793,-0.334c-0.31,0.086 -0.521,0.374 -0.508,0.696c0.181,2.342 0.924,4.877 2.267,7.305c2.222,4.017 5.564,6.797 8.818,7.727c2.45,0.691 4.522,2.332 5.754,4.56c3.417,6.16 9.807,17.707 14.495,26.179c2.008,3.629 5.665,1.546 3.638,-2.117c-4.655,-8.414 -10.963,-19.819 -14.369,-25.974c-1.251,-2.262 -1.531,-4.935 -0.775,-7.407c0.995,-3.259 0.427,-7.616 -1.819,-11.677c-1.496,-2.704 -3.499,-4.847 -5.641,-6.243c-0.265,-0.158 -0.604,-0.119 -0.826,0.096c-0.221,0.214 -0.272,0.551 -0.122,0.822c1.996,3.63 5.995,10.859 5.995,10.859c0.327,0.591 0.113,1.336 -0.479,1.664c-0,-0 -0.001,0 -0.001,0c-0.592,0.328 -1.337,0.113 -1.664,-0.479c-1.38,-2.494 -4.916,-8.887 -7.889,-14.255c-0.189,-0.342 -0.556,-0.545 -0.946,-0.524c-0.05,0.007 -0.099,0.011 -0.149,0.015Z" style="fill:#f2af0d;"/><path d="M25.023,72.076c-0.245,0.118 -0.403,0.372 -0.392,0.652c0.181,2.342 0.924,4.877 2.267,7.305c2.222,4.017 5.564,6.797 8.818,7.727c2.45,0.691 4.522,2.332 5.754,4.56c3.417,6.16 9.807,17.707 14.495,26.179c1.792,3.24 4.899,1.927 4.103,-0.998c-0.76,1.17 -2.648,1.123 -3.897,-1.134c-4.687,-8.473 -11.078,-20.02 -14.494,-26.18c-1.232,-2.228 -3.305,-3.869 -5.755,-4.56c-3.254,-0.93 -6.595,-3.71 -8.818,-7.727c-1.064,-1.924 -1.752,-3.915 -2.081,-5.824Z" style="fill:#f4bb31;"/><path d="M36.749,64.992c1.578,1.33 3.024,3.074 4.171,5.148c2.246,4.06 2.814,8.418 1.819,11.677c-0.756,2.472 -0.476,5.145 0.775,7.407c3.406,6.155 9.714,17.56 14.369,25.974c1.388,2.509 0.11,4.277 -1.479,3.975c2.048,2.659 5.085,0.618 3.199,-2.791c-4.655,-8.414 -10.963,-19.819 -14.369,-25.974c-1.251,-2.262 -1.531,-4.935 -0.775,-7.407c0.995,-3.259 0.427,-7.616 -1.819,-11.677c-1.496,-2.704 -3.499,-4.847 -5.641,-6.243c-0.079,-0.047 -0.164,-0.077 -0.25,-0.089Z" style="fill:#d59a0b;"/><ellipse cx="54.419" cy="105.414" rx="2.015" ry="3.685" style="fill:#fac7a5;"/><path d="M35.02,120.834l10.7,-6.385c-1.812,-5.24 -0.938,-10.282 2.105,-11.509c3.215,-1.297 7.642,2.154 9.88,7.701c2.238,5.548 1.444,11.105 -1.771,12.402c-0.237,0.095 -0.48,0.165 -0.729,0.21c-0.968,0.36 -3.032,1.246 -5.593,3.034c-5.133,-1.223 -10.025,-3.068 -14.592,-5.453Z" style="fill:#fac7a5;"/><path d="M46.649,125.504c3.166,-2.454 5.793,-3.592 6.924,-4.013c0.249,-0.045 0.492,-0.115 0.729,-0.21c1.564,-0.631 2.555,-2.269 2.902,-4.424c0.368,-2.276 1.882,-1.34 1.747,0.739c-0.173,2.653 -1.214,4.72 -3.017,5.447c-0.237,0.095 -0.48,0.165 -0.729,0.21c-0.968,0.36 -3.032,1.246 -5.593,3.034c-0.996,-0.238 -1.983,-0.498 -2.963,-0.783Z" style="fill:#f9ab8e;"/><path d="M35.02,120.834l10.7,-6.385c-1.812,-5.24 -0.938,-10.282 2.105,-11.509c3.215,-1.297 7.642,2.154 9.88,7.701c0.326,0.81 0.589,1.62 0.788,2.418c-2.323,-5.086 -6.483,-8.156 -9.545,-6.921c-2.017,0.813 -3.081,3.304 -3.041,6.417c0.008,0.61 0.058,1.244 0.152,1.894c0.09,0.627 -3.655,3.475 -9.358,7.231c-0.565,-0.274 -1.125,-0.556 -1.681,-0.846Z" style="fill:#fbd5bc;"/><path d="M77.536,33.444c0,0 -13.407,-7.186 -27.868,0c-0,0 0.975,-3.219 -1.324,-6.081c-1.211,-1.506 -2.369,-2.279 -4.323,-3.699c-2.629,-1.911 -3.002,-7.932 -0,-12.062c2.203,-3.032 7.69,-3.491 10.121,-3.232c5.742,0.614 11.318,4.674 14.551,5.241c3.234,0.566 11.336,-2.058 14.775,0.566c3.438,2.625 4.042,6.971 -0.767,10.158c-4.809,3.186 -5.616,4.495 -5.702,5.293c-0.086,0.797 0.537,3.816 0.537,3.816" style="fill:#f3f8fe;"/><path d="M52.919,32.053c-1.074,0.388 -2.159,0.849 -3.251,1.391c-0,0 0.975,-3.219 -1.324,-6.081c-1.211,-1.506 -2.369,-2.279 -4.323,-3.699c-2.629,-1.911 -3.002,-7.932 -0,-12.062c2.203,-3.032 7.69,-3.491 10.121,-3.232c0.049,0.006 0.097,0.011 0.146,0.017c-2.574,0.245 -5.686,1.11 -7.215,3.215c-3.002,4.13 -2.629,10.151 -0,12.062c1.954,1.42 3.112,2.193 4.323,3.699c1.351,1.682 1.572,3.487 1.523,4.69Z" style="fill:#f9fcfe;"/><path d="M83.27,14.036c0.067,0.045 0.133,0.092 0.198,0.141c3.438,2.625 4.042,6.971 -0.767,10.158c-4.809,3.186 -5.616,4.495 -5.702,5.293c-0.086,0.797 0.537,3.816 0.537,3.816c0,0 -13.407,-7.186 -27.868,0c-0,0 11.703,-7.143 21.996,-3.484c0.748,0.266 1.581,0.133 2.248,-0.3c0.666,-0.432 1.101,-1.142 1.186,-1.932c0.001,-0 0.001,-0 0.001,-0.001c0.223,-2.074 0.893,-2.106 5.702,-5.292c3.847,-2.55 4.23,-5.841 2.469,-8.399Z" style="fill:#e3e3e3;"/><path d="M49.203,75.186c0.045,-0.024 0.09,-0.048 0.134,-0.072c3.624,-1.951 6.076,-5.539 6.576,-9.624c0.408,-4.051 0.892,-8.844 0.892,-8.844c-0,-3.363 2.73,-6.093 6.092,-6.093c3.363,0 6.093,2.73 6.093,6.093c-0,-0 0.481,4.742 0.895,8.813c0.469,4.159 2.961,7.818 6.659,9.779c0.029,0.015 0.059,0.031 0.088,0.046c-0.963,6.704 -13.707,11.864 -13.707,11.864c-0,0 -12.801,-5.211 -13.722,-11.962Z" style="fill:#fac7a5;"/><path d="M62.897,50.553c3.363,0 6.093,2.73 6.093,6.093c-0,-0 0.481,4.742 0.895,8.813c0.469,4.159 2.961,7.818 6.659,9.779c0.029,0.015 0.059,0.031 0.088,0.046c-0.233,1.622 -1.156,3.154 -2.421,4.544c-2.959,-2.07 -4.917,-5.326 -5.327,-8.963c-0.087,-0.853 -0.176,-1.735 -0.264,-2.597c-0.25,-2.463 -1.9,-4.559 -4.235,-5.382c-0.174,-0.043 -0.342,-0.109 -0.512,-0.184c-7.068,-3.104 -7.068,-6.056 -7.068,-6.056c-0,-3.363 2.73,-6.093 6.092,-6.093Z" style="fill:#f9ab8e;"/><path d="M52.695,80.861c-1.808,-1.677 -3.209,-3.603 -3.492,-5.675c0.045,-0.024 0.09,-0.048 0.134,-0.072c3.624,-1.951 6.076,-5.539 6.576,-9.624c0.408,-4.051 0.892,-8.844 0.892,-8.844c0.874,5.545 0.531,8.407 0.531,8.407c-0.499,4.65 -2.951,8.735 -6.575,10.955c-0.045,0.027 -0.089,0.055 -0.134,0.082c0.202,1.69 0.979,3.295 2.068,4.771Z" style="fill:#fbd5bc;"/><path d="M62.938,34.093c3.516,0 3.577,4.771 5.548,7.973c1.368,2.222 5.243,2.289 5.243,5.287c-0,7.318 -4.835,13.259 -10.791,13.259c-5.956,-0 -10.791,-5.941 -10.791,-13.259c-0,-2.998 3.304,-3.065 4.671,-5.287c1.971,-3.202 2.604,-7.973 6.12,-7.973Z" style="fill:#fac7a5;"/><path d="M53.356,44.87c0.059,5.409 1.47,10.254 3.678,13.58c-2.943,-2.369 -4.887,-6.456 -4.887,-11.097c-0,-1.177 0.508,-1.902 1.209,-2.483Z" style="fill:#fbd5bc;"/><path d="M60.766,34.897c0.587,-0.502 1.288,-0.804 2.172,-0.804c3.516,0 3.577,4.771 5.548,7.973c1.368,2.222 5.243,2.289 5.243,5.287c-0,5.555 -2.787,10.318 -6.735,12.289c3.365,-2.246 5.652,-6.627 5.652,-11.66c0,-2.998 -3.875,-3.065 -5.243,-5.287c-1.971,-3.201 -2.032,-7.972 -5.548,-7.972c-0.398,-0 -0.759,0.061 -1.089,0.174Z" style="fill:#f9ab8e;"/><path d="M64.24,44.753l-1.975,0c-0.326,-1.581 -1.726,-2.77 -3.403,-2.77c-1.681,-0 -3.085,1.197 -3.406,2.784c-0.037,-0.009 -0.075,-0.014 -0.114,-0.014l-2.166,0l-0.553,0.945l2.719,-0c0.018,-0 0.036,-0.001 0.053,-0.003c0.123,1.807 1.629,3.237 3.467,3.237c1.837,-0 3.343,-1.428 3.466,-3.234l1.848,-0c0.124,1.806 1.63,3.234 3.467,3.234c1.837,-0 3.342,-1.428 3.466,-3.234l1.239,-0c0.26,-0 0.472,-0.212 0.472,-0.472c0,-0.261 -0.212,-0.473 -0.472,-0.473l-1.302,0c-0.326,-1.581 -1.727,-2.77 -3.403,-2.77c-1.677,-0 -3.077,1.189 -3.403,2.77Zm-5.378,-1.826c1.396,0 2.53,1.134 2.53,2.53c0,1.397 -1.134,2.53 -2.53,2.53c-1.396,0 -2.53,-1.133 -2.53,-2.53c0,-1.396 1.134,-2.53 2.53,-2.53Zm8.781,0c1.396,0 2.53,1.134 2.53,2.53c-0,1.397 -1.134,2.53 -2.53,2.53c-1.397,0 -2.53,-1.133 -2.53,-2.53c-0,-1.396 1.133,-2.53 2.53,-2.53Z" style="fill:#f9ab8e;"/><path d="M63.894,44.407l-1.975,0c-0.326,-1.58 -1.726,-2.77 -3.403,-2.77c-1.681,-0 -3.085,1.197 -3.406,2.784c-0.036,-0.009 -0.075,-0.014 -0.114,-0.014l-3.467,0c-0.261,0 -0.473,0.212 -0.473,0.473c0,0.26 0.212,0.472 0.473,0.472l3.467,0c0.018,0 0.036,-0.001 0.054,-0.003c0.122,1.807 1.628,3.237 3.466,3.237c1.837,0 3.343,-1.428 3.467,-3.234l1.848,0c0.123,1.806 1.629,3.234 3.466,3.234c1.837,0 3.343,-1.428 3.466,-3.234l2.998,0c0.26,0 0.472,-0.212 0.472,-0.472c-0,-0.261 -0.212,-0.473 -0.472,-0.473l-3.061,0c-0.326,-1.58 -1.727,-2.77 -3.403,-2.77c-1.676,-0 -3.077,1.19 -3.403,2.77Z" style="fill:#f3f8fe;"/><circle cx="58.516" cy="45.111" r="2.53" style="fill:#e6b798;"/><circle cx="67.297" cy="45.111" r="2.53" style="fill:#e6b798;"/><ellipse cx="58.722" cy="45.111" rx="0.626" ry="0.712" style="fill:#5c5c5c;"/><path d="M55.05,45.349l0.06,-0.928c0,0 -0.075,-0.014 -0.114,-0.014l-3.467,0c-0.261,0 -0.473,0.212 -0.473,0.473c0,0.26 0.212,0.472 0.473,0.472l3.467,0c0.018,0 0.054,-0.003 0.054,-0.003Z" style="fill:#fff;"/><path d="M63.894,44.407l-1.975,0l0.064,0.945l1.848,0l0.063,-0.945Z" style="fill:#e0e5ea;"/><path d="M70.7,44.407l0.063,0.945l2.998,0c0.26,0 0.472,-0.212 0.472,-0.472c-0,-0.261 -0.212,-0.473 -0.472,-0.473l-3.061,0Z" style="fill:#e0e5ea;"/><path d="M56.22,41.821c0,0 0.216,-0.265 0.483,-0.481c0.4,-0.324 0.767,-0.465 1.012,-0.576c0.178,-0.08 0.387,-0.148 0.678,-0.191c0.129,-0.018 0.218,-0.138 0.199,-0.267c-0.018,-0.129 -0.138,-0.219 -0.267,-0.2c-0.734,0.107 -1.16,0.323 -1.65,0.869c-0.275,0.307 -0.455,0.846 -0.455,0.846Z" style="fill:#5c5c5c;"/><path d="M69.17,41.821c-0,0 -0.216,-0.265 -0.483,-0.481c-0.4,-0.324 -0.767,-0.465 -1.012,-0.576c-0.178,-0.08 -0.387,-0.148 -0.678,-0.191c-0.129,-0.018 -0.218,-0.138 -0.199,-0.267c0.018,-0.129 0.138,-0.219 0.267,-0.2c0.734,0.107 1.16,0.323 1.65,0.869c0.275,0.307 0.455,0.846 0.455,0.846Z" style="fill:#5c5c5c;"/><ellipse cx="67.224" cy="45.111" rx="0.626" ry="0.712" style="fill:#5c5c5c;"/><path d="M62.587,46.331c0,0 0.337,1.926 1.258,2.869c0.329,0.336 0.434,0.68 0.27,0.906c-0.153,0.21 -0.525,0.243 -1.048,0.086c-0.184,-0.055 -0.39,0.018 -0.46,0.164c-0.069,0.145 0.023,0.308 0.207,0.363c0.975,0.293 1.633,0.06 1.919,-0.332c0.274,-0.376 0.225,-0.97 -0.324,-1.532c-0.832,-0.852 -1.115,-2.598 -1.115,-2.598c-0.026,-0.154 -0.205,-0.263 -0.4,-0.242c-0.195,0.02 -0.333,0.162 -0.307,0.316Z" style="fill:#404040;"/><path d="M65.095,52.278c0,0 -1.315,0.606 -2.324,0.505c-0.593,-0.06 -1.173,-0.181 -1.398,-0.512c-0.09,-0.133 -0.304,-0.171 -0.478,-0.086c-0.173,0.085 -0.24,0.261 -0.15,0.394c0.31,0.456 1.062,0.688 1.876,0.77c1.099,0.11 2.512,-0.506 2.512,-0.506c0.195,-0.023 0.345,-0.168 0.335,-0.324c-0.011,-0.156 -0.178,-0.264 -0.373,-0.241Z" style="fill:#404040;"/><path d="M63.137,86.762c-1.947,0.956 -3.964,1.745 -6.085,2.294c-0.127,0.033 -0.216,0.148 -0.216,0.279l0,19.635c0,0.159 0.13,0.288 0.289,0.288c0.159,-0 0.288,-0.129 0.288,-0.288l-0,-19.413c2.08,-0.556 4.063,-1.338 5.978,-2.278c0.142,-0.07 0.201,-0.243 0.131,-0.386c-0.07,-0.142 -0.243,-0.201 -0.385,-0.131Z" style="fill:#a9a9a9;"/><circle cx="61.778" cy="94.264" r="1.654" style="fill:#a9a9a9;"/><circle cx="62.035" cy="104.293" r="1.555" style="fill:#a9a9a9;"/><path d="M46.105,114.511c0,-0 0.167,1.386 1.816,3.448c0.094,0.117 0.075,0.287 -0.042,0.381c-0.117,0.093 -0.287,0.074 -0.381,-0.043c-1.776,-2.221 -1.931,-3.726 -1.931,-3.726c-0.017,-0.149 0.091,-0.283 0.239,-0.299c0.149,-0.017 0.283,0.09 0.299,0.239Z" style="fill:#f9ab8e;"/><path d="M57.713,112.822c-1.362,-2.463 -5.164,-0.641 -3.801,1.822c2.782,5.029 5.14,9.292 6.53,11.805c0.74,1.336 2.163,1.964 3.18,1.402c0,-0.001 0,-0.001 0.001,-0.001c1.016,-0.562 1.241,-2.102 0.502,-3.438c-1.37,-2.477 -3.682,-6.655 -6.412,-11.59Z" style="fill:#f2af0d;"/><path d="M55.759,111.653c0.162,0.157 0.309,0.348 0.435,0.576c2.73,4.935 5.041,9.113 6.412,11.59c0.739,1.337 0.514,2.876 -0.502,3.438c-0.001,0 -0.001,0.001 -0.002,0.001c-0.253,0.14 -0.532,0.206 -0.819,0.206c0.733,0.594 1.634,0.777 2.339,0.387c0,-0.001 0,-0.001 0.001,-0.001c1.016,-0.562 1.241,-2.102 0.502,-3.438c-1.37,-2.477 -3.682,-6.655 -6.412,-11.59c-0.466,-0.844 -1.22,-1.185 -1.954,-1.169Z" style="fill:#ce950b;"/><path d="M50.255,111.523c0,-0 1.12,-1.063 2.677,-1.645c1.59,-0.595 3.626,-0.696 5.41,1.266c0.1,0.11 0.092,0.282 -0.019,0.382c-0.11,0.101 -0.282,0.093 -0.382,-0.018c-1.589,-1.747 -3.403,-1.652 -4.819,-1.123c-1.45,0.542 -2.494,1.531 -2.494,1.531c-0.109,0.103 -0.28,0.098 -0.383,-0.01c-0.103,-0.109 -0.098,-0.281 0.01,-0.383Z" style="fill:#f9ab8e;"/><path d="M49.361,109.97c-0,0 1.12,-1.062 2.677,-1.644c1.59,-0.595 3.626,-0.697 5.409,1.265c0.101,0.111 0.093,0.282 -0.018,0.383c-0.111,0.101 -0.282,0.092 -0.383,-0.018c-1.588,-1.748 -3.402,-1.652 -4.819,-1.123c-1.45,0.542 -2.494,1.531 -2.494,1.531c-0.108,0.102 -0.28,0.098 -0.382,-0.011c-0.103,-0.108 -0.099,-0.28 0.01,-0.383Z" style="fill:#f9ab8e;"/><path d="M48.414,108.523c-0,0 1.12,-1.062 2.676,-1.644c1.591,-0.595 3.626,-0.697 5.41,1.265c0.101,0.111 0.092,0.282 -0.018,0.383c-0.111,0.101 -0.282,0.092 -0.383,-0.018c-1.588,-1.748 -3.402,-1.652 -4.819,-1.123c-1.45,0.542 -2.494,1.531 -2.494,1.531c-0.108,0.102 -0.28,0.098 -0.383,-0.011c-0.102,-0.108 -0.098,-0.28 0.011,-0.383Z" style="fill:#f9ab8e;"/><path d="M47.217,107.016c-0,-0 1.12,-1.063 2.676,-1.645c1.591,-0.594 3.626,-0.696 5.41,1.266c0.101,0.111 0.092,0.282 -0.018,0.383c-0.111,0.1 -0.282,0.092 -0.383,-0.019c-1.588,-1.747 -3.403,-1.652 -4.819,-1.122c-1.45,0.542 -2.494,1.53 -2.494,1.53c-0.108,0.103 -0.28,0.098 -0.383,-0.01c-0.102,-0.109 -0.098,-0.28 0.011,-0.383Z" style="fill:#f9ab8e;"/><ellipse cx="77.989" cy="105.414" rx="2.235" ry="3.685" style="fill:#fac7a5;"/><path d="M86.545,91.155c1.439,-2.601 1.827,-5.654 1.085,-8.532c-0.845,-3.213 -0.237,-7.393 1.923,-11.299c3.552,-6.42 9.962,-9.681 14.306,-7.278c4.344,2.403 4.988,9.567 1.436,15.987c-2.137,3.864 -5.31,6.584 -8.445,7.613c-2.782,0.916 -5.114,2.848 -6.532,5.411c-3.687,6.645 -10.238,18.48 -14.796,26.719c-1.697,3.067 -5.563,1.362 -4.012,-1.441c4.538,-8.204 11.262,-20.359 15.035,-27.18Z" style="fill:#f2af0d;"/><path d="M73.703,121.325c-1.652,0.448 -3.299,-0.992 -2.193,-2.99c4.538,-8.204 11.262,-20.359 15.035,-27.18c1.439,-2.601 1.827,-5.654 1.085,-8.532c-0.845,-3.213 -0.237,-7.393 1.923,-11.299c2.901,-5.243 7.709,-8.38 11.74,-8.043c-3.75,0.299 -7.917,3.314 -10.533,8.043c-2.161,3.906 -2.769,8.086 -1.923,11.299c0.742,2.878 0.353,5.931 -1.085,8.532c-3.774,6.821 -10.497,18.976 -15.036,27.18c-0.826,1.494 -0.115,2.675 0.987,2.99Z" style="fill:#f4bb31;"/><path d="M106.852,67.575c1.339,3.326 0.873,8.066 -1.557,12.458c-2.137,3.864 -5.31,6.584 -8.445,7.613c-2.782,0.916 -5.114,2.848 -6.532,5.411c-3.72,6.704 -10.355,18.693 -14.918,26.94c-1.643,2.97 -2.812,1.328 -1.585,-0.89c4.544,-8.213 11.872,-21.455 15.857,-28.636c1.417,-2.562 3.75,-4.495 6.531,-5.411c3.135,-1.029 6.308,-3.749 8.446,-7.613c1.852,-3.349 2.563,-6.9 2.203,-9.872Z" style="fill:#d59a0b;"/><path d="M94.778,120.272c-4.976,2.719 -10.356,4.792 -16.026,6.105c-2.725,-1.11 -4.644,-1.888 -4.644,-1.888l5.762,-11.163l14.908,6.946Z" style="fill:#fac7a5;"/><path d="M78.752,126.377c-2.725,-1.11 -4.644,-1.888 -4.644,-1.888l2.477,-1.104c-0,0 2.25,0.912 5.337,2.17c-1.046,0.3 -2.103,0.575 -3.17,0.822Z" style="fill:#fbd5bc;"/><path d="M74.132,124.572c3.215,1.297 7.642,-2.154 9.88,-7.702c2.238,-5.548 1.444,-11.104 -1.771,-12.401c-3.215,-1.297 -7.642,2.154 -9.88,7.701c-2.238,5.548 -1.445,11.105 1.771,12.402Z" style="fill:#fac7a5;"/><path d="M84.332,115.2c0,-0 -0.166,1.385 -1.816,3.447c-0.093,0.117 -0.074,0.288 0.042,0.381c0.117,0.094 0.288,0.075 0.381,-0.042c1.777,-2.221 1.932,-3.727 1.932,-3.727c0.016,-0.148 -0.091,-0.282 -0.24,-0.299c-0.148,-0.016 -0.282,0.091 -0.299,0.24Z" style="fill:#f9ab8e;"/><path d="M80.563,111.523c-0,-0 -1.12,-1.063 -2.677,-1.645c-1.591,-0.595 -3.626,-0.696 -5.41,1.266c-0.1,0.11 -0.092,0.282 0.018,0.382c0.111,0.101 0.283,0.093 0.383,-0.018c1.589,-1.747 3.403,-1.652 4.819,-1.123c1.45,0.542 2.494,1.531 2.494,1.531c0.108,0.103 0.28,0.098 0.383,-0.01c0.103,-0.109 0.098,-0.281 -0.01,-0.383Z" style="fill:#f9ab8e;"/><path d="M81.457,109.97c0,0 -1.12,-1.062 -2.677,-1.644c-1.59,-0.595 -3.626,-0.697 -5.409,1.265c-0.101,0.111 -0.093,0.282 0.018,0.383c0.111,0.101 0.282,0.092 0.383,-0.018c1.588,-1.748 3.402,-1.652 4.819,-1.123c1.45,0.542 2.493,1.531 2.493,1.531c0.109,0.102 0.28,0.098 0.383,-0.011c0.103,-0.108 0.099,-0.28 -0.01,-0.383Z" style="fill:#f9ab8e;"/><path d="M82.404,108.523c0,0 -1.12,-1.062 -2.677,-1.644c-1.59,-0.595 -3.626,-0.697 -5.409,1.265c-0.101,0.111 -0.093,0.282 0.018,0.383c0.111,0.101 0.282,0.092 0.383,-0.018c1.588,-1.748 3.402,-1.652 4.819,-1.123c1.45,0.542 2.493,1.531 2.493,1.531c0.109,0.102 0.281,0.098 0.383,-0.011c0.103,-0.108 0.099,-0.28 -0.01,-0.383Z" style="fill:#f9ab8e;"/><path d="M83.601,107.016c0,-0 -1.12,-1.063 -2.677,-1.645c-1.59,-0.594 -3.626,-0.696 -5.409,1.266c-0.101,0.111 -0.093,0.282 0.018,0.383c0.111,0.1 0.282,0.092 0.383,-0.019c1.588,-1.747 3.402,-1.652 4.819,-1.122c1.45,0.542 2.494,1.53 2.494,1.53c0.108,0.103 0.28,0.098 0.382,-0.01c0.103,-0.109 0.099,-0.28 -0.01,-0.383Z" style="fill:#f9ab8e;"/><path d="M74.624,112.879c1.357,-2.453 5.159,-0.631 3.802,1.823c-2.771,5.008 -5.121,9.254 -6.505,11.757c-0.736,1.331 -2.157,1.954 -3.174,1.392c-0,-0.001 -0,-0.001 -0.001,-0.001c-1.016,-0.562 -1.244,-2.097 -0.507,-3.428c1.364,-2.467 3.667,-6.629 6.385,-11.543Z" style="fill:#f2af0d;"/><path d="M78.16,112.383c0.553,0.55 0.78,1.389 0.266,2.319c-2.771,5.008 -5.121,9.254 -6.505,11.757c-0.736,1.331 -2.157,1.954 -3.174,1.392c-0,-0.001 -0,-0.001 -0.001,-0.001c-0.644,-0.356 -0.971,-1.103 -0.937,-1.94c0.118,0.128 0.256,0.238 0.413,0.325c0,-0 0.001,0 0.001,0c1.017,0.563 2.438,-0.06 3.174,-1.391c1.384,-2.503 3.734,-6.749 6.505,-11.758c0.133,-0.242 0.217,-0.477 0.258,-0.703Z" style="fill:#ce950b;"/><path d="M66.437,89.561c-0.256,-0.005 -0.953,-0.245 -1.937,-0.682c-3.948,-1.752 1.286,-2.349 1.055,-2.579c-0.23,-0.231 0.586,0.282 0.882,0.409c0.06,0.027 0.119,0.052 0.177,0.078c7.012,-3.444 12.883,-11.574 12.883,-11.574c-0,-0 4.527,1.123 4.069,1.928c-3.84,6.738 -15.481,12.454 -17.129,12.42Z" style="fill-opacity:0.15;"/><path d="M63.648,89.576c-1.282,-0.027 -13.669,-5.961 -17.566,-12.92c-0.451,-0.805 3.999,-1.928 3.999,-1.928c-0,-0 6.284,8.854 13.567,11.996c0.061,0.026 0.12,0.052 0.178,0.078c7.012,-3.445 12.883,-11.575 12.883,-11.575c-0,0 4.527,1.124 4.069,1.928c-3.84,6.739 -15.482,12.455 -17.13,12.421Z" style="fill:#e3e3e3;"/><path d="M47.097,75.715c4.121,6.535 14.672,12.133 18.122,13.422c-0.745,0.291 -1.296,0.445 -1.571,0.439c-1.282,-0.027 -13.669,-5.961 -17.566,-12.92c-0.165,-0.295 0.326,-0.632 1.015,-0.941Zm18.362,10.192c6.267,-3.779 11.25,-10.68 11.25,-10.68c-0,0 1.07,0.266 2.116,0.631c-2.483,2.944 -7.161,7.898 -12.416,10.479c-0.064,-0.028 -0.13,-0.057 -0.197,-0.086c-0.253,-0.108 -0.504,-0.223 -0.753,-0.344Z" style="fill:#eaeaea;"/></g></g></svg>